<svg id="Layer_1" data-name="Layer 1" xmlns="http://www.w3.org/2000/svg" viewBox="0 0 294.81 104.96"><defs><style>.cls-1{fill:#fff;}</style></defs><title>MPG-logo-mono-white</title><path class="cls-1" d="M28.74,45.22h8.32l13.52,21,13.52-21h8.32V79.33a30.63,30.63,0,1,0-43.68.33V45.22Z" transform="translate(-7.87 -11)"/><path class="cls-1" d="M64.61,57.79l-14,20.95h-.25L36.42,57.92V85.26a30.56,30.56,0,0,0,28.19-.09V57.79Z" transform="translate(-7.87 -11)"/><path class="cls-1" d="M78.85,85.79,77.55,87,76,88.33c-.64.49-1.4,1-2.23,1.63a26,26,0,0,1-2.89,1.83c-.54.31-1.08.67-1.68,1l-1.9.88a39.88,39.88,0,0,1-9.17,2.89,41.35,41.35,0,0,1-5.46.56c-.93,0-2,.12-2.84,0l-3.06-.22A41.14,41.14,0,0,1,34.72,93.6a38.83,38.83,0,0,1-18.9-18.73,39.59,39.59,0,0,1-3.57-13.14c-.05-1.12-.09-2.24-.14-3.36v-.32l0-.44,0-.88.1-1.75a10.25,10.25,0,0,1,.19-1.64l.24-1.57a29.24,29.24,0,0,1,.69-3.13,38.67,38.67,0,0,1,5-11.18,36.78,36.78,0,0,1,7.3-8.16,36.93,36.93,0,0,1,3.91-2.91c.63-.44,1.32-.76,1.94-1.14a20.22,20.22,0,0,1,1.88-1,41.63,41.63,0,0,1,6.66-2.51l2.55-.66,1.15-.21,0,4.49L56.21,18.1,43.73,11l0,4.64L41.57,16l-2.91.73a41.75,41.75,0,0,0-7.53,3A20.3,20.3,0,0,0,29,20.84c-.71.44-1.47.82-2.18,1.34a41.91,41.91,0,0,0-4.36,3.37,41.56,41.56,0,0,0-8,9.37A43,43,0,0,0,9.1,47.55a33,33,0,0,0-.71,3.56L8.15,53A11.68,11.68,0,0,0,8,54.78l-.07,1.75,0,.88,0,.44v.06c0,.21,0,.09,0,.15v.35c.07,1.24.15,2.48.22,3.72A42.16,42.16,0,0,0,33.53,96.3a43.08,43.08,0,0,0,13.11,3.15l3.06.1h.63l.19,0,.77,0,1.51-.11a42.66,42.66,0,0,0,5.74-.81A42,42,0,0,0,68,95.17l1.94-1c.62-.33,1.16-.73,1.71-1.07a24.72,24.72,0,0,0,2.92-2c.84-.68,1.61-1.27,2.24-1.81l1.49-1.46,1.25-1.21-.73-.78Z" transform="translate(-7.87 -11)"/><path class="cls-1" d="M169.42,105V105a10.84,10.84,0,0,1,11-11,11.48,11.48,0,0,1,8.19,2.89l-2.38,2.83a8.32,8.32,0,0,0-6-2.28c-3.92,0-6.9,3.43-6.9,7.51V105c0,4.38,2.89,7.6,7.24,7.6a8.71,8.71,0,0,0,5.14-1.61v-4h-5.45V103.7h9.07v8.94a13.55,13.55,0,0,1-8.88,3.32c-6.66,0-11-4.75-11-10.95Z" transform="translate(-7.87 -11)"/><path class="cls-1" d="M196,94.3h9.49a8.54,8.54,0,0,1,6.14,2.13,6.44,6.44,0,0,1,1.77,4.6v.06c0,3.49-2.1,5.59-5.08,6.44l5.75,8.06h-4.41l-5.23-7.42H199.7v7.42H196V94.3Zm9.22,10.56c2.67,0,4.38-1.4,4.38-3.56v-.06c0-2.28-1.65-3.53-4.41-3.53H199.7v7.15Z" transform="translate(-7.87 -11)"/><path class="cls-1" d="M218.19,105V105a11.13,11.13,0,0,1,22.26-.06V105a11.13,11.13,0,0,1-22.26.06Zm18.34,0V105a7.29,7.29,0,0,0-7.24-7.57,7.19,7.19,0,0,0-7.18,7.51V105a7.3,7.3,0,0,0,7.24,7.57,7.19,7.19,0,0,0,7.18-7.51Z" transform="translate(-7.87 -11)"/><path class="cls-1" d="M246.19,106.56V94.3h3.74v12.11c0,4,2,6.08,5.38,6.08s5.35-2,5.35-5.93V94.3h3.74v12.08c0,6.35-3.58,9.55-9.15,9.55s-9.06-3.2-9.06-9.37Z" transform="translate(-7.87 -11)"/><path class="cls-1" d="M271.33,94.3h8.4c4.95,0,8.09,2.83,8.09,7.12v.06c0,4.78-3.83,7.27-8.52,7.27h-4.23v6.84h-3.74V94.3Zm8.09,11.07c2.83,0,4.6-1.58,4.6-3.8v-.06c0-2.49-1.8-3.8-4.6-3.8h-4.35v7.66Z" transform="translate(-7.87 -11)"/><path class="cls-1" d="M293.51,100.63a2.79,2.79,0,0,1-2.15-1L292,99a2.22,2.22,0,0,0,1.57.72c.84,0,1.25-.29,1.25-.88s-.35-.7-1.36-1c-1.28-.38-1.89-.7-1.89-1.78a1.78,1.78,0,0,1,2-1.68,2.71,2.71,0,0,1,2,.82l-.64.65a1.83,1.83,0,0,0-1.41-.58c-.71,0-1,.34-1,.75s.28.63,1.32.94,1.93.74,1.93,1.82-.69,1.83-2.23,1.83Z" transform="translate(-7.87 -11)"/><path class="cls-1" d="M301.3,100.53V97.34c0-.36,0-.89,0-1.06-.07.17-.24.61-.39,1l-1.46,3.4L298,97.23c-.15-.34-.32-.78-.39-1,0,.17,0,.7,0,1.06v3.19h-.86v-6h.93l1.36,3.21c.14.35.33.79.41,1,.09-.25.26-.68.41-1l1.32-3.21h1v6Z" transform="translate(-7.87 -11)"/><path class="cls-1" d="M90.37,50.38a4.55,4.55,0,1,1,4.54-4.54,4.59,4.59,0,0,1-4.54,4.54ZM86.4,83V52.85h7.93V83Z" transform="translate(-7.87 -11)"/><path class="cls-1" d="M120.25,83V66.71c0-5.41-1.84-7-5.11-7S110,61.3,110,66.53V83H102V52.85H110v2A9.92,9.92,0,0,1,117,52.22c7.71,0,11.16,5.29,11.16,13.8V83Z" transform="translate(-7.87 -11)"/><path class="cls-1" d="M152.28,83v-1.9a9.33,9.33,0,0,1-6.38,2.53c-6.44,0-11.73-4.83-11.73-16.1,0-9,4.25-15.35,11.73-15.35a9.54,9.54,0,0,1,6.38,2.36V45.09l7.93-4V83Zm0-20.76a6.32,6.32,0,0,0-5.35-2.59c-3.05,0-4.71,2.65-4.71,7.71,0,6.21,2.07,8.79,5.17,8.79a5.56,5.56,0,0,0,4.89-2.53V62.28Z" transform="translate(-7.87 -11)"/><path class="cls-1" d="M186,68.78h-8.85V83h-8.05V42.79h17.59c7.59,0,13.86,4.2,13.86,12.76,0,9.32-6.21,13.23-14.55,13.23Zm.4-18.17h-9.25V61h9.37c3.74,0,5.75-1.73,5.75-5.23s-2.3-5.12-5.87-5.12Z" transform="translate(-7.87 -11)"/><path class="cls-1" d="M216.16,83.67c-7.88,0-13.63-6.44-13.63-15.7s5.75-15.75,13.63-15.75,13.68,6.5,13.68,15.75-5.81,15.7-13.68,15.7Zm0-23.8c-3.8,0-5.58,3.45-5.58,8.1s1.78,8,5.58,8,5.63-3.85,5.63-8c0-4.6-1.84-8.1-5.63-8.1Z" transform="translate(-7.87 -11)"/><path class="cls-1" d="M239.92,50.38a4.55,4.55,0,1,1,4.54-4.54,4.59,4.59,0,0,1-4.54,4.54ZM236,83V52.85h7.94V83Z" transform="translate(-7.87 -11)"/><path class="cls-1" d="M269.81,83V66.71c0-5.41-1.84-7-5.12-7s-5.17,1.61-5.17,6.84V83h-7.94V52.85h7.94v2a9.89,9.89,0,0,1,7.07-2.64c7.7,0,11.15,5.29,11.15,13.8V83Z" transform="translate(-7.87 -11)"/><path class="cls-1" d="M301.53,81.83a10.59,10.59,0,0,1-6.15,1.84c-4.89,0-8.05-3.8-8.05-9.09V60.33h-5.06V52.85h5.06V45.09l7.93-4V52.85h7.25v7.48h-7.25V72.46c0,2.87,1,3.62,2.93,3.62,1.44,0,2.53-.63,4.49-2.3l-1.15,8Z" transform="translate(-7.87 -11)"/></svg>